<svg width="53" height="64" viewBox="0 0 53 64" fill="none" xmlns="http://www.w3.org/2000/svg">
<g clip-path="url(#clip0_457_684)">
<mask id="mask0_457_684" style="mask-type:luminance" maskUnits="userSpaceOnUse" x="0" y="0" width="53" height="64">
<path d="M52.9994 0H0.819336V64H52.9994V0Z" fill="white"/>
</mask>
<g mask="url(#mask0_457_684)">
<path d="M33.2224 0C33.2224 0 13.1531 4.53097 10.4197 21.9407C8.79446 33.7361 27.9034 31.3474 27.9034 31.3474C27.9034 31.3474 21.5748 34.9919 12.7099 35.115C3.89411 34.8934 0.815994 29.279 0.815994 25.142C0.815994 25.142 0.49587 21.99 4.06648 16.9173C7.11997 12.4109 13.1038 6.91958 23.1754 2.80723C27.534 1.08349 33.1977 0 33.1977 0H33.2224Z" fill="#429459"/>
<path d="M19.7315 24.0832C19.7315 24.0832 28.5472 19.8724 39.3083 19.9216C50.0447 19.9709 53.0243 25.8316 53.0243 30.1902C53.0243 34.5488 50.7342 39.2767 45.76 44.4233C40.7858 49.5699 33.2259 55.406 22.4402 59.74C13.5999 63.3352 2.61719 64.0001 2.61719 64.0001C2.61719 64.0001 18.9928 59.0259 31.5515 45.9747C44.0855 32.9235 37.8308 27.3829 36.3287 26.004C34.8266 24.625 31.3791 22.0393 19.7561 24.0832H19.7315Z" fill="#285FA6"/>
<path d="M44.6809 13.0306C47.839 11.1044 49.0386 7.31223 47.3602 4.56049C45.6819 1.80875 41.7612 1.13953 38.603 3.06574C35.4449 4.99195 34.2453 8.78417 35.9237 11.5359C37.602 14.2876 41.5228 14.9568 44.6809 13.0306Z" fill="#D95E29"/>
</g>
</g>
<defs>
<clipPath id="clip0_457_684">
<rect width="53" height="64" fill="white"/>
</clipPath>
</defs>
</svg>
